Coordinates
version=1
nRows=10
nColumns=63
inDegrees=yes

Units are S.I. units (second, meters, Newtons, ...)
If the header above contains a line with 'inDegrees', this indicates whether rotational values are in degrees (yes) or radians (no).

endheader
time	pelvis_tilt	pelvis_list	pelvis_rotation	pelvis_tx	pelvis_ty	pelvis_tz	hip_flexion_r	hip_adduction_r	hip_rotation_r	knee_angle_r	knee_angle_r_beta	ankle_angle_r	subtalar_angle_r	mtp_angle_r	hip_flexion_l	hip_adduction_l	hip_rotation_l	knee_angle_l	knee_angle_l_beta	ankle_angle_l	subtalar_angle_l	mtp_angle_l	L5_S1_Flex_Ext	L5_S1_Lat_Bending	L5_S1_axial_rotation	L4_L5_Flex_Ext	L4_L5_Lat_Bending	L4_L5_axial_rotation	L3_L4_Flex_Ext	L3_L4_Lat_Bending	L3_L4_axial_rotation	L2_L3_Flex_Ext	L2_L3_Lat_Bending	L2_L3_axial_rotation	L1_L2_Flex_Ext	L1_L2_Lat_Bending	L1_L2_axial_rotation	L1_T12_Flex_Ext	L1_T12_Lat_Bending	L1_T12_axial_rotation	Abs_r3	Abs_r2	Abs_r1	Abs_t1	Abs_t2	neck_flexion	neck_bending	neck_rotation	arm_flex_r	arm_add_r	arm_rot_r	elbow_flex_r	pro_sup_r	wrist_flex_r	wrist_dev_r	arm_flex_l	arm_add_l	arm_rot_l	elbow_flex_l	pro_sup_l	wrist_flex_l	wrist_dev_l
2.956522	3.963552	-6.499841	89.720009	-0.097986	0.812625	0.635242	2.271024	0.848378	0.518455	4.438054	0.077459	22.666717	6.435474	0.000000	1.006850	-2.137575	5.899865	0.961985	0.016790	21.427507	-11.881096	0.000000	0.184383	0.598512	1.286057	0.342418	0.796020	1.366436	0.302923	1.455221	1.366436	0.210732	1.455221	1.125300	0.171218	1.220485	1.044922	0.105357	0.927094	0.964543	1.317031	6.770482	7.152666	0.000000	0.000000	24.948112	-4.010848	6.863407	23.537871	-13.511083	129.528047	19.172355	10.549102	-0.392142	-6.103268	22.716818	1.049628	124.648318	24.200817	25.007918	-3.475392	-8.859031
2.978261	3.834208	-6.468954	90.075539	-0.097672	0.812842	0.634998	2.134059	0.779046	0.949600	4.225976	0.073757	22.590399	5.315550	0.000000	1.019551	-2.051286	6.110242	0.948624	0.016557	21.663683	-11.582252	0.000000	0.198475	0.552155	1.192030	0.368588	0.734366	1.266531	0.326075	1.342509	1.266531	0.226837	1.342509	1.043026	0.184304	1.125954	0.968524	0.113409	0.855288	0.894022	1.417689	6.246084	6.629711	0.000000	0.000000	24.906563	-3.904616	6.100097	23.976317	-12.722055	124.681051	19.832801	17.016601	-1.491863	-6.902975	22.944781	0.611077	118.142883	25.631206	26.650252	-3.744903	-7.831827
3.000000	3.703458	-6.443560	90.545421	-0.097379	0.813013	0.634694	1.941785	0.726673	1.576698	3.909529	0.068234	22.429173	3.805990	0.000000	1.042867	-1.966336	6.464408	0.931868	0.016264	21.895322	-11.294499	0.000000	0.212882	0.502783	1.076681	0.395344	0.668702	1.143973	0.349744	1.222467	1.143973	0.243303	1.222467	0.942096	0.197683	1.025276	0.874803	0.121641	0.778811	0.807511	1.520597	5.687585	5.988176	0.000000	0.000000	24.913337	-3.752292	5.288890	24.061667	-11.919736	118.540440	20.601103	24.726198	-2.217084	-7.273954	23.178968	0.169816	111.887962	27.009380	28.848846	-4.270499	-6.664975
3.021739	3.580310	-6.428308	91.079352	-0.097127	0.813141	0.634412	1.746654	0.680341	2.092024	3.590374	0.062664	22.311889	2.420023	0.000000	1.088756	-1.885058	6.869026	0.943625	0.016469	22.108203	-11.003303	0.000000	0.226728	0.452614	0.948905	0.421057	0.601976	1.008211	0.372491	1.100485	1.008211	0.259127	1.100485	0.830292	0.210540	0.922969	0.770985	0.129552	0.701098	0.711679	1.619496	5.120055	5.277524	0.000000	0.000000	24.977879	-3.640388	4.318137	23.891868	-11.131812	111.871265	21.406365	32.740316	-2.643072	-7.217121	23.397521	-0.247258	106.087924	28.240915	31.741437	-4.837219	-5.338604
3.043478	3.473216	-6.427282	91.667786	-0.096941	0.813230	0.634205	1.563105	0.646821	2.426732	3.286345	0.057358	22.220075	1.227436	0.000000	1.159739	-1.809466	7.505336	0.985204	0.017195	22.202341	-11.007130	0.000000	0.239760	0.403797	0.813597	0.445259	0.537050	0.864446	0.393902	0.981793	0.864446	0.274022	0.981793	0.711897	0.222641	0.823423	0.661047	0.136999	0.625482	0.610197	1.712584	4.567836	4.524980	0.000000	0.000000	25.093137	-3.568899	3.227145	23.501610	-10.334793	105.175236	22.222942	40.612913	-2.591530	-6.724457	23.602528	-0.612681	100.988398	29.331606	35.212514	-5.490646	-3.857594
3.065217	3.384811	-6.435515	92.273663	-0.096833	0.813313	0.634139	1.406958	0.619955	2.542639	3.036788	0.053002	22.152160	0.305425	0.000000	1.263659	-1.745691	8.100263	1.092861	0.019074	22.241258	-10.983542	0.000000	0.250425	0.358381	0.678262	0.465065	0.476646	0.720653	0.411424	0.871367	0.720653	0.286211	0.871367	0.593479	0.232545	0.730810	0.551088	0.143093	0.555132	0.508696	1.788764	4.054073	3.772290	0.000000	0.000000	25.238821	-3.522609	2.077808	22.952160	-9.621467	98.421239	23.172091	47.962882	-2.287742	-5.688130	23.824393	-0.886054	96.963341	30.226915	39.094466	-6.177878	-2.293335
3.086957	3.316915	-6.452870	92.855110	-0.096818	0.813401	0.634213	1.292382	0.596341	2.440920	2.867681	0.050050	22.112577	-0.304746	0.000000	1.390075	-1.689950	8.675215	1.250666	0.021828	22.184757	-11.068603	0.000000	0.259439	0.318269	0.552053	0.481804	0.423298	0.586557	0.426232	0.773839	0.586557	0.296512	0.773839	0.483047	0.240915	0.649014	0.448543	0.148243	0.492998	0.414040	1.853145	3.600321	3.070354	0.000000	0.000000	25.389131	-3.505235	0.914261	22.234427	-9.005155	91.659014	24.306928	54.711736	-1.724430	-4.060398	24.051632	-1.034883	94.221451	30.886518	43.283732	-6.786260	-0.669300
3.108696	3.273644	-6.472776	93.385106	-0.096907	0.813513	0.634447	1.222421	0.578676	2.140050	2.787800	0.048656	22.102406	-0.606071	0.000000	1.536847	-1.649508	9.110976	1.466448	0.025594	22.076442	-11.139557	0.000000	0.266228	0.285228	0.437260	0.494412	0.379353	0.464589	0.437386	0.693504	0.464589	0.304272	0.693504	0.382603	0.247219	0.581637	0.355274	0.152123	0.441818	0.327945	1.901641	3.226557	2.431911	0.000000	0.000000	25.509455	-3.509130	-0.213159	21.419973	-8.499132	85.212645	25.644065	60.319610	-1.071186	-1.875871	24.301708	-1.052055	92.896903	31.310644	47.353189	-7.246706	0.910952
3.130435	3.248399	-6.492629	93.825709	-0.097073	0.813652	0.634823	1.196474	0.561247	1.694819	2.789556	0.048687	22.129744	-0.612993	0.000000	1.699372	-1.621030	9.300668	1.734695	0.030276	21.953621	-11.100969	0.000000	0.271055	0.259790	0.340064	0.503376	0.345520	0.361317	0.445316	0.631652	0.361317	0.309789	0.631652	0.297556	0.251702	0.529763	0.276302	0.154881	0.402414	0.255048	1.936120	2.938792	1.891331	0.000000	0.000000	25.565733	-3.499402	-1.202618	20.539866	-8.108166	79.281473	27.164242	64.326576	-0.492873	0.804472	24.576062	-0.945416	92.957793	31.520552	50.765478	-7.421603	2.342668
3.152174	3.203711	-6.512537	94.167346	-0.097215	0.813769	0.635317	1.225043	0.504385	0.992490	2.889122	0.050425	22.266824	-0.139626	0.000000	1.873674	-1.571113	9.234308	2.038294	0.035575	21.850258	-10.919078	0.000000	0.273469	0.236498	0.260547	0.507860	0.314542	0.276831	0.449283	0.575021	0.276831	0.312548	0.575021	0.227978	0.253944	0.482267	0.211694	0.156260	0.366335	0.195410	1.953364	2.675312	1.449083	0.000000	0.000000	25.565092	-3.436430	-2.005258	19.599058	-7.807648	73.768899	28.823983	66.542972	-0.152761	4.011619	24.827253	-1.154621	91.444427	32.069265	55.690871	-7.594924	4.180597
